<svg version="1" viewBox="0 0 94 72" xmlns="http://www.w3.org/2000/svg">
    <g transform="matrix(5.3752 0 0 5.3333 3.9965 -6.6665)">
        <path d="m5.9766 2c-0.54232 0.013827-0.97473 0.4575-0.97461 1v0.5957c-2.8277 0.67189-4.7598 2.9023-4.7598 2.9023-0.21569 0.25105-0.2932 0.59255-0.20703 0.91211 0 0 1.2295 4.0556 4.9668 5.082v0.50781c5.52e-5 0.55226 0.44774 0.99994 1 1h8.998c0.55226-5.5e-5 0.99994-0.44774 1-1v-10c-5.5e-5 -0.55226-0.44774-0.99994-1-1h-8.9902l0.025391 0.00977c-0.020109-7.189e-4 -0.038362-0.010275-0.058594-0.00977z" fill="#2b87cc"/>
        <path d="m2.4303 7.3049s1.0435-2.0159 3.5708-2.2245v-0.73135c-2.7994 0.2428-5.0011 2.8021-5.0011 2.8021s1.1507 4.2844 5.0011 4.6767v-0.77742c-2.8257-0.385-3.5709-3.7464-3.5709-3.7464zm3.5708 2.1993v0.71195c-2.1356-0.4108-2.5061-2.8072-2.5061-2.8072s0.80312-1.2261 2.506-1.425v0.78121c-1e-3 0-0.0017-4.061e-4 -0.0027-4.061e-4 -0.89377-0.11578-1.3697 0.78557-1.3697 0.78557s0.16908 1.5173 1.373 1.954m0-6.5042v1.349c0.08217-0.00684 0.38662-0.0125 0.46926-0.015541 3.1825-0.11578 5.2561 2.8176 5.2561 2.8176s-2.3816 3.1261-4.8629 3.1261c-0.2274 0-0.66256-0.02277-0.86252-0.06101v0.83421c0.17099 0.0234 0.57054 0.03722 0.75554 0.03722 2.309 0 3.9787-1.2729 5.5956-2.7794 0.26807 0.23176 1.3656 0.79557 1.5912 1.0423-1.5373 1.3893-5.1201 2.5093-7.1513 2.5093-0.19579 0-0.6061-0.01279-0.79092-0.03203v1.1722h8.9983v-9.9999h-8.9983zm0 2.9838v-0.90335c0.08133-0.0051 0.38556-0.010826 0.46926-0.013714 2.2885-0.077601 3.79 2.1229 3.79 2.1229s-1.6217 2.4313-3.3604 2.4313c-0.25024 0-0.69688-0.043397-0.8988-0.1167v-2.7391c0.8909 0.1162 1.2925 0.5411 1.8281 1.5049l1.1913-1.0843s-0.86962-1.2311-2.3356-1.2311c-0.15935-5.92e-5 -0.5341 0.012051-0.68384 0.029255" fill="#262626"/>
    </g>
</svg>
