<svg version="1" viewBox="0 0 22 22" xmlns="http://www.w3.org/2000/svg">
    <g transform="matrix(5.3752,0,0,5.3333,3.9965,-6.6665)" stroke-width=".233462">
        <path d="m0.8322964 1.9062547c-0.12612204 0.0032353-0.22668317 0.1072265-0.22665526 0.2343758v0.1396174c-0.65760884 0.1574754-1.1069373 0.68023-1.1069373 0.68023-0.0501609 0.058838-0.0681871 0.1388789-0.0481475 0.2137769 0 0 0.28593201 0.9505352 1.155077 1.1910987v0.1190184c1.308e-5 0.1294362 0.10412646 0.2343621 0.2325604 0.2343763h2.0925709c0.1284334-1.31e-5 0.2325455-0.1049401 0.2325595-0.2343763v-2.34376c-1.28e-5 -0.1294371-0.1041261-0.2343624-0.2325595-0.2343759h-2.0907573l0.0059 0.00232c-0.00472-1.687e-4 -0.008985-0.00245-0.0136285-0.00232z" fill="#2b87cc"/>
        <path d="m0.00756988 3.1495959s0.24267594-0.4724781 0.83042404-0.52137v-0.171411c-0.65102756 0.056912-1.1630541 0.656746-1.1630541 0.656746s0.26760636 1.0041599 1.1630541 1.096106v-0.1822091c-0.65714389-0.0902344-0.83044727-0.878066-0.83044727-0.878066zm0.83042404 0.5154633v0.1668633c-0.49665448-0.0962815-0.58281783-0.6579401-0.58281783-0.6579401s0.18677323-0.2873683 0.58279432-0.3339853v0.1830965c-2.323e-4 0-3.9502e-4 -9.46e-5 -6.281e-4 -9.46e-5 -0.20785454-0.027128-0.31853663 0.184118-0.31853663 0.184118s0.039321 0.3556187 0.31930424 0.4579705m0-1.5244281v0.3161727c0.0191095-0.00156 0.0899095-3e-3 0.10913071-0.00361 0.74012087-0.027131 1.2223565 0.6603757 1.2223565 0.6603757s-0.5538638 0.732683-1.1309143 0.732683c-0.052888 0-0.15408418-0.00526-0.20058644-0.014298v0.1955185c0.039763 0.00543 0.13268383 0.00879 0.17570704 0.00879 0.5369803 0 0.9252851-0.2983373 1.3013108-0.6514249 0.062337 0.054319 0.3175835 0.1864626 0.3700489 0.2442902-0.3575139 0.3256189-1.1907281 0.5881198-1.6631034 0.5881198-0.045528 0-0.14095464-0.00303-0.18393612-0.00745v0.274595h2.0926411v-2.3437504h-2.0926411zm0 0.699331v-0.2117237c0.0189094-0.00111 0.0896704-0.00259 0.10913071-0.00313 0.53221287-0.018197 0.88140087 0.4975525 0.88140087 0.4975525s-0.3771418 0.5698385-0.7814935 0.5698385c-0.058195 0-0.16206596-0.010172-0.20902442-0.027346v-0.6420594c0.20718742 0.027232 0.30058292 0.1268157 0.42514182 0.3527072l0.2770489-0.2541342s-0.2022384-0.2885405-0.5431666-0.2885405c-0.0370624-1.33e-5 -0.12420956 0.0029-0.1590328 0.00693" fill="#262626"/>
    </g>
</svg>
