<svg version="1" viewBox="0 0 22 22" xmlns="http://www.w3.org/2000/svg">
    <g transform="matrix(1.125,0,0,1.125,2,2)">
        <rect width="16" height="16" rx="4.8000002" ry="4.8000002" fill="#0071c5"/>
        <g fill="#fff">
            <path d="m2 7h-0.99902l-9.797e-4 2.9401c0 0.52931 0.25281 0.98738 1 1.0599z"/>
            <path d="m1 6h1v-1h-1z"/>
            <path d="m4.6905 7.8172c0.27132 0 0.38459 0.14641 0.38459 0.38451v2.7983h0.92494v-2.8045c0-0.5679-0.27634-1.1943-1.0894-1.1943l-1.9106-0.0012v3.9995h0.92494v-3.1823z"/>
            <path d="m7 6v1h2e-3l-2e-3 2.9395c0 0.52931 0.25281 0.98808 1 1.0605h1v-1h-1v-2h1v-1h-1v-1z"/>
            <path d="m14 5v2h2e-3l-2e-3 2.9395c0 0.52931 0.25281 0.98808 1 1.0605v-6z"/>
            <path d="m11.572 7c-0.8917 0-1.5725 0.7209-1.5725 1.9967 0 1.4921 0.77824 2.0033 1.5913 2.0033 0.62166 0 0.97471-0.2324 1.3112-0.6161l-0.52498-0.5774c-0.21784 0.2487-0.40374 0.3695-0.78051 0.3695-0.48076 0-0.75184-0.3696-0.75184-0.8703h2.1548v-0.3534c0-1.1084-0.52072-1.9523-1.4275-1.9523zm-0.03767 0.8108c0.43673 0 0.60199 0.4054 0.61834 0.8268h-1.3079c0.0056-0.172 0.02615-0.2816 0.08109-0.4214 0.09498-0.2325 0.31792-0.4054 0.60852-0.4054z"/>
        </g>
    </g>
</svg>
